<svg xmlns="http://www.w3.org/2000/svg" width="1280" height="420" viewBox="0 0 1280 420" role="img" aria-labelledby="title desc">
  <title id="title">SETTING SERVER SCUM</title>
  <desc id="desc">Professional repository banner for the SETTING SERVER SCUM local-first control panel.</desc>
  <defs>
    <linearGradient id="bg" x1="0" y1="0" x2="1" y2="1">
      <stop offset="0" stop-color="#071019"/>
      <stop offset="0.46" stop-color="#0c1b24"/>
      <stop offset="1" stop-color="#1c271b"/>
    </linearGradient>
    <linearGradient id="accent" x1="0" y1="0" x2="1" y2="0">
      <stop offset="0" stop-color="#f0b429"/>
      <stop offset="1" stop-color="#5fe0bf"/>
    </linearGradient>
    <pattern id="grid" width="44" height="44" patternUnits="userSpaceOnUse">
      <path d="M 44 0 L 0 0 0 44" fill="none" stroke="#ffffff" stroke-opacity="0.055" stroke-width="1"/>
    </pattern>
    <filter id="softShadow" x="-20%" y="-20%" width="140%" height="140%">
      <feDropShadow dx="0" dy="18" stdDeviation="26" flood-color="#000000" flood-opacity="0.42"/>
    </filter>
  </defs>
  <rect width="1280" height="420" fill="url(#bg)"/>
  <rect width="1280" height="420" fill="url(#grid)"/>
  <circle cx="1080" cy="70" r="220" fill="#5fe0bf" opacity="0.12"/>
  <circle cx="102" cy="345" r="210" fill="#f0b429" opacity="0.12"/>
  <path d="M0 332 C188 260 302 378 482 300 C666 220 802 318 990 230 C1110 174 1194 170 1280 190 L1280 420 L0 420 Z" fill="#050a0f" opacity="0.5"/>
  <g transform="translate(86 78)" filter="url(#softShadow)">
    <rect x="0" y="0" width="1110" height="264" rx="34" fill="#09131d" fill-opacity="0.84" stroke="#ffffff" stroke-opacity="0.1"/>
    <rect x="34" y="34" width="7" height="196" rx="3.5" fill="url(#accent)"/>
    <text x="70" y="78" fill="#9fb5d3" font-family="Segoe UI, Arial, sans-serif" font-size="20" letter-spacing="5">LOCAL-FIRST SCUM CONTROL PANEL</text>
    <text x="70" y="148" fill="#ffffff" font-family="Segoe UI, Arial, sans-serif" font-size="58" font-weight="800" letter-spacing="1">SETTING SERVER SCUM</text>
    <text x="72" y="198" fill="#d8e3ef" font-family="Segoe UI, Arial, sans-serif" font-size="24">Loot Studio · Analyzer · Graph · Backups · Safe Apply · Portable Launcher</text>
    <g transform="translate(72 222)">
      <rect x="0" y="0" width="118" height="34" rx="17" fill="#f0b429" fill-opacity="0.14" stroke="#f0b429" stroke-opacity="0.45"/>
      <text x="18" y="23" fill="#ffe0a0" font-family="Segoe UI, Arial, sans-serif" font-size="14" font-weight="700">v1.0.9-local</text>
      <rect x="132" y="0" width="104" height="34" rx="17" fill="#5fe0bf" fill-opacity="0.12" stroke="#5fe0bf" stroke-opacity="0.4"/>
      <text x="153" y="23" fill="#c9fff1" font-family="Segoe UI, Arial, sans-serif" font-size="14" font-weight="700">KOGA.EXE</text>
      <rect x="250" y="0" width="142" height="34" rx="17" fill="#88c2ff" fill-opacity="0.12" stroke="#88c2ff" stroke-opacity="0.35"/>
      <text x="272" y="23" fill="#d7ebff" font-family="Segoe UI, Arial, sans-serif" font-size="14" font-weight="700">Portable Ready</text>
    </g>
  </g>
  <g transform="translate(916 96)" opacity="0.78">
    <path d="M0 116 L84 68 L168 116 L168 212 L84 260 L0 212 Z" fill="none" stroke="#5fe0bf" stroke-width="3" stroke-opacity="0.5"/>
    <path d="M84 68 L84 260" stroke="#5fe0bf" stroke-width="3" stroke-opacity="0.32"/>
    <path d="M0 116 L168 212" stroke="#f0b429" stroke-width="3" stroke-opacity="0.32"/>
    <path d="M168 116 L0 212" stroke="#88c2ff" stroke-width="3" stroke-opacity="0.28"/>
    <circle cx="0" cy="116" r="9" fill="#f0b429"/>
    <circle cx="168" cy="116" r="9" fill="#88c2ff"/>
    <circle cx="84" cy="68" r="9" fill="#5fe0bf"/>
    <circle cx="84" cy="260" r="9" fill="#5fe0bf"/>
  </g>
</svg>
